<svg xmlns="http://www.w3.org/2000/svg" xmlns:xlink="http://www.w3.org/1999/xlink" width="181" height="48" viewBox="0 0 181 48">
    <defs>
        <path id="a" d="M0 48h180.517V.203H0z"/>
        <path id="c" d="M.297 11.581h22.236C22.533 5.3 17.556.206 11.415.206S.297 5.3.297 11.581"/>
    </defs>
    <g fill="none" fill-rule="evenodd">
        <path fill="#FEFEFE" d="M55.176 26v3.355h7.253L54 47h13.524v-3.327h-7.812L68 26z"/>
        <g>
            <path fill="#FEFEFE" d="M72.118 42.926c0 1.094.943 1.46 2.247 1.46 2.22 0 2.83-1.627 2.998-3.284-3.885-.392-5.245.506-5.245 1.824zm-3.108-6.09c-.25-4.123 1.944-5.778 5.856-5.778 4.272 0 6.13 2.16 6.13 6.452v10.187H77.89l-.36-1.908c-.917 1.29-2.47 2.132-4.302 2.132-2.692 0-4.717-1.57-4.717-4.686 0-3.9 3.22-5.444 8.852-5.05 0-2.47-.472-3.704-2.47-3.704-1.665 0-2.275.588-2.248 2.355H69.01z"/>
            <mask id="b" fill="#fff">
                <use xlink:href="#a"/>
            </mask>
            <path fill="#FEFEFE" d="M84.548 47.725h3.801v-16.22h-3.8v16.22zm4.08-19.923c0 2.806-4.303 2.833-4.303 0 0-2.862 4.302-2.833 4.302 0zM92.4 31.142H95.7l.25 1.683c.916-1.207 2.387-1.824 3.856-1.768 1.61 0 3.248.533 4.024 2.104.86-1.29 2.582-2.131 4.661-2.131 3.387 0 5.412 1.991 5.412 6.48v10.185h-3.801V37.511c0-2.133-.86-3.002-2.443-3.002-1.442 0-2.524.617-2.58 2.973v10.213h-3.802V37.511c0-2.133-.86-3.002-2.441-3.002-1.471 0-2.637.729-2.637 2.862v10.324h-3.8V31.142zM126.221 41.326v-3.591c0-2.048-.527-3.226-2.525-3.226-1.998 0-2.526 1.178-2.526 3.226v3.591c0 2.05.528 3.228 2.526 3.228 1.998 0 2.525-1.179 2.525-3.228m-8.879.197V37.54c0-4.35 2.052-6.453 6.354-6.453 4.3 0 6.355 1.99 6.355 6.453v3.984c0 4.46-2.054 6.454-6.355 6.454-4.302 0-6.354-1.993-6.354-6.454" mask="url(#b)"/>
            <path fill="#EB9B21" d="M133.488 31.142h3.303l.249 1.683c.916-1.207 2.387-1.824 3.857-1.768 1.61 0 3.248.533 4.023 2.104.86-1.29 2.582-2.131 4.662-2.131 3.386 0 5.411 1.991 5.411 6.48v10.185h-3.8V37.511c0-2.133-.862-3.002-2.444-3.002-1.442 0-2.524.617-2.58 2.973v10.213h-3.802V37.511c0-2.133-.86-3.002-2.441-3.002-1.47 0-2.637.729-2.637 2.862v10.324h-3.8V31.142zM161.65 42.926c0 1.094.943 1.46 2.247 1.46 2.22 0 2.83-1.627 2.997-3.284-3.885-.392-5.245.506-5.245 1.824zm-3.11-6.09c-.249-4.123 1.945-5.778 5.857-5.778 4.273 0 6.131 2.16 6.131 6.452v10.187h-3.107l-.36-1.908c-.917 1.29-2.47 2.132-4.302 2.132-2.692 0-4.717-1.57-4.717-4.686 0-3.9 3.22-5.444 8.852-5.05 0-2.47-.472-3.704-2.47-3.704-1.665 0-2.275.588-2.247 2.355h-3.636zM173.884 28.28l3.801-.423v3.228h2.775v3.508h-2.775v6.987c0 1.823.278 3.06 2.83 2.75v3.366c-4.826.535-6.63-1.15-6.63-6.06V28.28z" mask="url(#b)"/>
            <path fill="#1E4883" d="M45.018 43.814c0 2.312-1.853 4.186-4.138 4.186H4.137C1.853 48 0 46.126 0 43.814v-23.62c0-2.31 1.853-4.183 4.137-4.183H40.88c2.285 0 4.138 1.874 4.138 4.184v23.62z" mask="url(#b)"/>
            <path fill="#1E4883" d="M47.482 33.449c0 2.312-1.854 4.184-4.138 4.184h-8.697c-2.284 0-4.137-1.872-4.137-4.184V30.56c0-2.31 1.853-4.184 4.137-4.184h8.697c2.284 0 4.138 1.874 4.138 4.184v2.888z" mask="url(#b)"/>
            <path stroke="#FEFEFE" d="M47.482 33.449c0 2.312-1.854 4.184-4.138 4.184h-8.697c-2.284 0-4.137-1.872-4.137-4.184V30.56c0-2.31 1.853-4.184 4.137-4.184h8.697c2.284 0 4.138 1.874 4.138 4.184v2.888z" mask="url(#b)"/>
            <path fill="#FEFEFE" d="M36.786 32.005a2.03 2.03 0 0 1-2.018 2.04 2.03 2.03 0 0 1-2.018-2.04 2.03 2.03 0 0 1 2.018-2.04c1.113 0 2.018.914 2.018 2.04" mask="url(#b)"/>
            <path stroke="#FEFEFE" stroke-linecap="round" stroke-width="2" d="M10.649 20.38h23.722" mask="url(#b)"/>
        </g>
        <g transform="translate(11 10)">
            <mask id="d" fill="#fff">
                <use xlink:href="#c"/>
            </mask>
            <path fill="#EB9B21" d="M.297 11.581h22.236C22.533 5.3 17.556.206 11.415.206S.297 5.3.297 11.581" mask="url(#d)"/>
        </g>
        <g stroke="#E1A222">
            <path d="M14.059.148v8.594M22.987.148v8.594M31.916.148v8.594"/>
        </g>
    </g>
</svg>
